kopru_ayakbilegi
version=1
nRows=12
nColumns=53
inDegrees=yes
endheader
time	sacrum_pitch	sacrum_roll	sacrum_yaw	sacrum_x	sacrum_y	sacrum_z	sacroiliac_flx	hip_flx	hip_add	hip_int	knee_flx	ankle_flx	ankle_add	ankle_int	BFa.activation	BFp.activation	CF.activation	STp.activation	STa.activation	SM.activation	QF.activation	TFL.activation	GMa.activation	GMe.activation	GMi.activation	Pir.activation	GP.activation	GA.activation	AL.activation	AM.activation	AB.activation	Pec.activation	IP.activation	OE.activation	OI.activation	GS.activation	GI.activation	RF.activation	VL.activation	VI.activation	VM.activation	MG.activation	LG.activation	Pla.activation	Sol.activation	TA.activation	EDL.activation	TP.activation	FDL.activation	FHL.activation	Per.activation	Pop.activation
0.148650	20.633716	0.000000	0.000000	0.000000	0.050000	0.000000	3.700000	39.941851	-10.000000	0.000000	-125.456028	45.798550	-5.000000	0.000000	0.000000	0.000000	0.000000	0.000000	0.000000	0.000000	0.000000	0.000000	0.000000	0.000000	0.000000	0.000000	0.000000	0.000000	0.000000	0.000000	0.000000	0.000000	0.000000	0.000000	0.000000	0.000000	0.000000	0.000000	0.000000	0.000000	0.000000	0.000000	0.000000	0.000000	0.358974	0.117065	0.180823	0.167019	0.166518	0.166518	0.180003	0.000000
0.153600	20.633716	0.000000	0.000000	0.000000	0.050000	0.000000	3.700000	39.941851	-10.000000	0.000000	-125.456028	46.389991	-5.000000	0.000000	0.000000	0.000000	0.000000	0.000000	0.000000	0.000000	0.000000	0.000000	0.000000	0.000000	0.000000	0.000000	0.000000	0.000000	0.000000	0.000000	0.000000	0.000000	0.000000	0.000000	0.000000	0.000000	0.000000	0.000000	0.000000	0.000000	0.000000	0.000000	0.000000	0.000000	0.325090	0.106015	0.163755	0.151253	0.150800	0.150800	0.163012	0.000000
0.158550	20.633716	0.000000	0.000000	0.000000	0.050000	0.000000	3.700000	39.941851	-10.000000	0.000000	-125.456028	46.902089	-5.000000	0.000000	0.000000	0.000000	0.000000	0.000000	0.000000	0.000000	0.000000	0.000000	0.000000	0.000000	0.000000	0.000000	0.000000	0.000000	0.000000	0.000000	0.000000	0.000000	0.000000	0.000000	0.000000	0.000000	0.000000	0.000000	0.000000	0.000000	0.000000	0.000000	0.000000	0.000000	0.294404	0.096008	0.148298	0.136976	0.136565	0.136565	0.147625	0.000000
0.163500	20.633716	0.000000	0.000000	0.000000	0.050000	0.000000	3.700000	39.941851	-10.000000	0.000000	-125.456028	47.350941	-5.000000	0.000000	0.000000	0.000000	0.000000	0.000000	0.000000	0.000000	0.000000	0.000000	0.000000	0.000000	0.000000	0.000000	0.000000	0.000000	0.000000	0.000000	0.000000	0.000000	0.000000	0.000000	0.000000	0.000000	0.000000	0.000000	0.000000	0.000000	0.000000	0.000000	0.000000	0.000000	0.266615	0.086945	0.134299	0.124047	0.123675	0.123675	0.133690	0.000000
0.168450	20.633716	0.000000	0.000000	0.000000	0.050000	0.000000	3.700000	39.941851	-10.000000	0.000000	-125.456028	47.743458	-5.000000	0.000000	0.000000	0.000000	0.000000	0.000000	0.000000	0.000000	0.000000	0.000000	0.000000	0.000000	0.000000	0.000000	0.000000	0.000000	0.000000	0.000000	0.000000	0.000000	0.000000	0.000000	0.000000	0.000000	0.000000	0.000000	0.000000	0.000000	0.000000	0.000000	0.000000	0.000000	0.241448	0.078738	0.121623	0.112338	0.112001	0.112001	0.121071	0.000000
0.173400	20.633716	0.000000	0.000000	0.000000	0.050000	0.000000	3.700000	39.941851	-10.000000	0.000000	-125.456028	48.085315	-5.000000	0.000000	0.000000	0.000000	0.000000	0.000000	0.000000	0.000000	0.000000	0.000000	0.000000	0.000000	0.000000	0.000000	0.000000	0.000000	0.000000	0.000000	0.000000	0.000000	0.000000	0.000000	0.000000	0.000000	0.000000	0.000000	0.000000	0.000000	0.000000	0.000000	0.000000	0.000000	0.218657	0.071306	0.110142	0.101734	0.101429	0.101429	0.109643	0.000000
0.178350	20.633716	0.000000	0.000000	0.000000	0.050000	0.000000	3.700000	39.941851	-10.000000	0.000000	-125.456028	48.383782	-5.000000	0.000000	0.000000	0.000000	0.000000	0.000000	0.000000	0.000000	0.000000	0.000000	0.000000	0.000000	0.000000	0.000000	0.000000	0.000000	0.000000	0.000000	0.000000	0.000000	0.000000	0.000000	0.000000	0.000000	0.000000	0.000000	0.000000	0.000000	0.000000	0.000000	0.000000	0.000000	0.198018	0.064575	0.099746	0.092131	0.091855	0.091855	0.099294	0.000000
0.183300	20.633716	0.000000	0.000000	0.000000	0.050000	0.000000	3.700000	39.941851	-10.000000	0.000000	-125.456028	48.646811	-5.000000	0.000000	0.000000	0.000000	0.000000	0.000000	0.000000	0.000000	0.000000	0.000000	0.000000	0.000000	0.000000	0.000000	0.000000	0.000000	0.000000	0.000000	0.000000	0.000000	0.000000	0.000000	0.000000	0.000000	0.000000	0.000000	0.000000	0.000000	0.000000	0.000000	0.000000	0.000000	0.179327	0.058480	0.090331	0.083435	0.083184	0.083184	0.089921	0.000000
0.188250	20.633716	0.000000	0.000000	0.000000	0.050000	0.000000	3.700000	39.941851	-10.000000	0.000000	-125.456028	48.882098	-5.000000	0.000000	0.000000	0.000000	0.000000	0.000000	0.000000	0.000000	0.000000	0.000000	0.000000	0.000000	0.000000	0.000000	0.000000	0.000000	0.000000	0.000000	0.000000	0.000000	0.000000	0.000000	0.000000	0.000000	0.000000	0.000000	0.000000	0.000000	0.000000	0.000000	0.000000	0.000000	0.162400	0.052960	0.081804	0.075559	0.075332	0.075332	0.081433	0.000000
0.193200	20.633716	0.000000	0.000000	0.000000	0.050000	0.000000	3.700000	39.941851	-10.000000	0.000000	-125.456028	49.094063	-5.000000	0.000000	0.000000	0.000000	0.000000	0.000000	0.000000	0.000000	0.000000	0.000000	0.000000	0.000000	0.000000	0.000000	0.000000	0.000000	0.000000	0.000000	0.000000	0.000000	0.000000	0.000000	0.000000	0.000000	0.000000	0.000000	0.000000	0.000000	0.000000	0.000000	0.000000	0.000000	0.147070	0.047961	0.074082	0.068427	0.068222	0.068222	0.073747	0.000000
0.198150	20.633716	0.000000	0.000000	0.000000	0.050000	0.000000	3.700000	39.941851	-10.000000	0.000000	-125.456028	49.283081	-5.000000	0.000000	0.000000	0.000000	0.000000	0.000000	0.000000	0.000000	0.000000	0.000000	0.000000	0.000000	0.000000	0.000000	0.000000	0.000000	0.000000	0.000000	0.000000	0.000000	0.000000	0.000000	0.000000	0.000000	0.000000	0.000000	0.000000	0.000000	0.000000	0.000000	0.000000	0.000000	0.133188	0.043434	0.067090	0.061968	0.061782	0.061782	0.066785	0.000000
0.203100	20.633716	0.000000	0.000000	0.000000	0.050000	0.000000	3.700000	39.941851	-10.000000	0.000000	-125.456028	49.074615	-5.000000	0.000000	0.000000	0.000000	0.000000	0.000000	0.000000	0.000000	0.000000	0.000000	0.000000	0.000000	0.000000	0.000000	0.000000	0.000000	0.000000	0.000000	0.000000	0.000000	0.000000	0.000000	0.000000	0.000000	0.000000	0.000000	0.000000	0.000000	0.000000	0.277740	0.277740	0.311077	0.797299	0.039334	0.060757	0.371904	0.371735	0.371735	0.060481	0.000000
